<svg width="79" height="21" viewBox="0 0 79 21" fill="none" xmlns="http://www.w3.org/2000/svg">
<path d="M1.0459 10.9971C1.0459 11.1201 1.06641 11.2373 1.10742 11.3486C1.1543 11.4541 1.22754 11.5537 1.32715 11.6475L7.86621 18.0371C8.03027 18.207 8.23242 18.292 8.47266 18.292C8.63672 18.292 8.7832 18.2539 8.91211 18.1777C9.04688 18.1016 9.15234 17.9961 9.22852 17.8613C9.31055 17.7324 9.35156 17.5859 9.35156 17.4219C9.35156 17.1875 9.26367 16.9824 9.08789 16.8066L3.14648 10.9971L9.08789 5.1875C9.26367 5.01172 9.35156 4.80664 9.35156 4.57227C9.35156 4.40234 9.31055 4.25293 9.22852 4.12402C9.15234 3.99512 9.04688 3.89258 8.91211 3.81641C8.7832 3.74023 8.63672 3.70215 8.47266 3.70215C8.23242 3.70215 8.03027 3.78711 7.86621 3.95703L1.32715 10.3467C1.22754 10.4404 1.1543 10.543 1.10742 10.6543C1.06641 10.7598 1.0459 10.874 1.0459 10.9971Z" fill="black"/>
<path d="M20.6562 4.20312V17H18.4502V4.20312H20.6562ZM25.2881 9.52051V17H23.1699V7.49023H25.165L25.2881 9.52051ZM24.9102 11.8936L24.2246 11.8848C24.2305 11.2109 24.3242 10.5928 24.5059 10.0303C24.6934 9.46777 24.9512 8.98438 25.2793 8.58008C25.6133 8.17578 26.0117 7.86523 26.4746 7.64844C26.9375 7.42578 27.4531 7.31445 28.0215 7.31445C28.4785 7.31445 28.8916 7.37891 29.2607 7.50781C29.6357 7.63086 29.9551 7.83301 30.2188 8.11426C30.4883 8.39551 30.6934 8.76172 30.834 9.21289C30.9746 9.6582 31.0449 10.2061 31.0449 10.8564V17H28.918V10.8477C28.918 10.3906 28.8506 10.0303 28.7158 9.7666C28.5869 9.49707 28.3965 9.30664 28.1445 9.19531C27.8984 9.07812 27.5908 9.01953 27.2217 9.01953C26.8584 9.01953 26.5332 9.0957 26.2461 9.24805C25.959 9.40039 25.7158 9.6084 25.5166 9.87207C25.3232 10.1357 25.1738 10.4404 25.0684 10.7861C24.9629 11.1318 24.9102 11.501 24.9102 11.8936ZM39.0078 15.0312V3.5H41.1348V17H39.21L39.0078 15.0312ZM32.8203 12.3506V12.166C32.8203 11.4453 32.9053 10.7891 33.0752 10.1973C33.2451 9.59961 33.4912 9.08691 33.8135 8.65918C34.1357 8.22559 34.5283 7.89453 34.9912 7.66602C35.4541 7.43164 35.9756 7.31445 36.5557 7.31445C37.1299 7.31445 37.6338 7.42578 38.0674 7.64844C38.501 7.87109 38.8701 8.19043 39.1748 8.60645C39.4795 9.0166 39.7227 9.50879 39.9043 10.083C40.0859 10.6514 40.2148 11.2842 40.291 11.9814V12.5703C40.2148 13.25 40.0859 13.8711 39.9043 14.4336C39.7227 14.9961 39.4795 15.4824 39.1748 15.8926C38.8701 16.3027 38.498 16.6191 38.0586 16.8418C37.625 17.0645 37.1182 17.1758 36.5381 17.1758C35.9639 17.1758 35.4453 17.0557 34.9824 16.8154C34.5254 16.5752 34.1357 16.2383 33.8135 15.8047C33.4912 15.3711 33.2451 14.8613 33.0752 14.2754C32.9053 13.6836 32.8203 13.042 32.8203 12.3506ZM34.9385 12.166V12.3506C34.9385 12.7842 34.9766 13.1885 35.0527 13.5635C35.1348 13.9385 35.2607 14.2695 35.4307 14.5566C35.6006 14.8379 35.8203 15.0605 36.0898 15.2246C36.3652 15.3828 36.6934 15.4619 37.0742 15.4619C37.5547 15.4619 37.9502 15.3564 38.2607 15.1455C38.5713 14.9346 38.8145 14.6504 38.9902 14.293C39.1719 13.9297 39.2949 13.5254 39.3594 13.0801V11.4893C39.3242 11.1436 39.251 10.8213 39.1396 10.5225C39.0342 10.2236 38.8906 9.96289 38.709 9.74023C38.5273 9.51172 38.3018 9.33594 38.0322 9.21289C37.7686 9.08398 37.4551 9.01953 37.0918 9.01953C36.7051 9.01953 36.377 9.10156 36.1074 9.26562C35.8379 9.42969 35.6152 9.65527 35.4395 9.94238C35.2695 10.2295 35.1436 10.5635 35.0615 10.9443C34.9795 11.3252 34.9385 11.7324 34.9385 12.166ZM45.6172 7.49023V17H43.4902V7.49023H45.6172ZM43.3496 4.99414C43.3496 4.67187 43.4551 4.40527 43.666 4.19434C43.8828 3.97754 44.1816 3.86914 44.5625 3.86914C44.9375 3.86914 45.2334 3.97754 45.4502 4.19434C45.667 4.40527 45.7754 4.67187 45.7754 4.99414C45.7754 5.31055 45.667 5.57422 45.4502 5.78516C45.2334 5.99609 44.9375 6.10156 44.5625 6.10156C44.1816 6.10156 43.8828 5.99609 43.666 5.78516C43.4551 5.57422 43.3496 5.31055 43.3496 4.99414ZM52.1299 17.1758C51.4268 17.1758 50.791 17.0615 50.2227 16.833C49.6602 16.5986 49.1797 16.2734 48.7812 15.8574C48.3887 15.4414 48.0869 14.9521 47.876 14.3896C47.665 13.8271 47.5596 13.2207 47.5596 12.5703V12.2188C47.5596 11.4746 47.668 10.8008 47.8848 10.1973C48.1016 9.59375 48.4033 9.07812 48.79 8.65039C49.1768 8.2168 49.6338 7.88574 50.1611 7.65723C50.6885 7.42871 51.2598 7.31445 51.875 7.31445C52.5547 7.31445 53.1494 7.42871 53.6592 7.65723C54.1689 7.88574 54.5908 8.20801 54.9248 8.62402C55.2646 9.03418 55.5166 9.52344 55.6807 10.0918C55.8506 10.6602 55.9355 11.2871 55.9355 11.9727V12.8779H48.5879V11.3574H53.8438V11.1904C53.832 10.8096 53.7559 10.4521 53.6152 10.1182C53.4805 9.78418 53.2725 9.51465 52.9912 9.30957C52.71 9.10449 52.335 9.00195 51.8662 9.00195C51.5146 9.00195 51.2012 9.07812 50.9258 9.23047C50.6562 9.37695 50.4307 9.59082 50.249 9.87207C50.0674 10.1533 49.9268 10.4932 49.8271 10.8916C49.7334 11.2842 49.6865 11.7266 49.6865 12.2188V12.5703C49.6865 12.9863 49.7422 13.373 49.8535 13.7305C49.9707 14.082 50.1406 14.3896 50.3633 14.6533C50.5859 14.917 50.8555 15.125 51.1719 15.2773C51.4883 15.4238 51.8486 15.4971 52.2529 15.4971C52.7627 15.4971 53.2168 15.3945 53.6152 15.1895C54.0137 14.9844 54.3594 14.6943 54.6523 14.3193L55.7686 15.4004C55.5635 15.6992 55.2969 15.9863 54.9688 16.2617C54.6406 16.5312 54.2393 16.751 53.7646 16.9209C53.2959 17.0908 52.751 17.1758 52.1299 17.1758ZM61.9473 7.49023V9.03711H56.5859V7.49023H61.9473ZM58.1328 5.16113H60.251V14.3721C60.251 14.665 60.292 14.8906 60.374 15.0488C60.4619 15.2012 60.582 15.3037 60.7344 15.3564C60.8867 15.4092 61.0654 15.4355 61.2705 15.4355C61.417 15.4355 61.5576 15.4268 61.6924 15.4092C61.8271 15.3916 61.9355 15.374 62.0176 15.3564L62.0264 16.9736C61.8506 17.0264 61.6455 17.0732 61.4111 17.1143C61.1826 17.1553 60.9189 17.1758 60.6201 17.1758C60.1338 17.1758 59.7031 17.0908 59.3281 16.9209C58.9531 16.7451 58.6602 16.4609 58.4492 16.0684C58.2383 15.6758 58.1328 15.1543 58.1328 14.5039V5.16113ZM65.709 9.30078V17H63.5908V7.49023H65.6123L65.709 9.30078ZM68.6182 7.42871L68.6006 9.39746C68.4717 9.37402 68.3311 9.35645 68.1787 9.34473C68.0322 9.33301 67.8857 9.32715 67.7393 9.32715C67.376 9.32715 67.0566 9.37988 66.7812 9.48535C66.5059 9.58496 66.2744 9.73145 66.0869 9.9248C65.9053 10.1123 65.7646 10.3408 65.665 10.6104C65.5654 10.8799 65.5068 11.1816 65.4893 11.5156L65.0059 11.5508C65.0059 10.9531 65.0645 10.3994 65.1816 9.88965C65.2988 9.37988 65.4746 8.93164 65.709 8.54492C65.9492 8.1582 66.248 7.85645 66.6055 7.63965C66.9688 7.42285 67.3877 7.31445 67.8623 7.31445C67.9912 7.31445 68.1289 7.32617 68.2754 7.34961C68.4277 7.37305 68.542 7.39941 68.6182 7.42871ZM69.3125 12.3506V12.1484C69.3125 11.4629 69.4121 10.8271 69.6113 10.2412C69.8105 9.64941 70.0977 9.13672 70.4727 8.70312C70.8535 8.26367 71.3164 7.92383 71.8613 7.68359C72.4121 7.4375 73.0332 7.31445 73.7246 7.31445C74.4219 7.31445 75.043 7.4375 75.5879 7.68359C76.1387 7.92383 76.6045 8.26367 76.9854 8.70312C77.3662 9.13672 77.6562 9.64941 77.8555 10.2412C78.0547 10.8271 78.1543 11.4629 78.1543 12.1484V12.3506C78.1543 13.0361 78.0547 13.6719 77.8555 14.2578C77.6562 14.8438 77.3662 15.3564 76.9854 15.7959C76.6045 16.2295 76.1416 16.5693 75.5967 16.8154C75.0518 17.0557 74.4336 17.1758 73.7422 17.1758C73.0449 17.1758 72.4209 17.0557 71.8701 16.8154C71.3252 16.5693 70.8623 16.2295 70.4814 15.7959C70.1006 15.3564 69.8105 14.8438 69.6113 14.2578C69.4121 13.6719 69.3125 13.0361 69.3125 12.3506ZM71.4307 12.1484V12.3506C71.4307 12.7783 71.4746 13.1826 71.5625 13.5635C71.6504 13.9443 71.7881 14.2783 71.9756 14.5654C72.1631 14.8525 72.4033 15.0781 72.6963 15.2422C72.9893 15.4062 73.3379 15.4883 73.7422 15.4883C74.1348 15.4883 74.4746 15.4062 74.7617 15.2422C75.0547 15.0781 75.2949 14.8525 75.4824 14.5654C75.6699 14.2783 75.8076 13.9443 75.8955 13.5635C75.9893 13.1826 76.0361 12.7783 76.0361 12.3506V12.1484C76.0361 11.7266 75.9893 11.3281 75.8955 10.9531C75.8076 10.5723 75.667 10.2354 75.4736 9.94238C75.2861 9.64941 75.0459 9.4209 74.7529 9.25684C74.4658 9.08691 74.123 9.00195 73.7246 9.00195C73.3262 9.00195 72.9805 9.08691 72.6875 9.25684C72.4004 9.4209 72.1631 9.64941 71.9756 9.94238C71.7881 10.2354 71.6504 10.5723 71.5625 10.9531C71.4746 11.3281 71.4307 11.7266 71.4307 12.1484Z" fill="black"/>
</svg>
