<svg xmlns="http://www.w3.org/2000/svg" width="288" height="288" viewBox="0 0 288 288">
  <g id="Raggruppa_15" data-name="Raggruppa 15" transform="translate(-113.262 -121.189)">
    <path id="Rettangolo_4" data-name="Rettangolo 4" d="M99.056,0h89.888A99.056,99.056,0,0,1,288,99.056v89.888A99.056,99.056,0,0,1,188.944,288H100A100,100,0,0,1,0,188V99.056A99.056,99.056,0,0,1,99.056,0Z" transform="translate(113.262 121.189)" fill="#21a4d2"/>
    <g id="Raggruppa_14" data-name="Raggruppa 14">
      <g id="Raggruppa_11" data-name="Raggruppa 11">
        <g id="Tracciato_63" data-name="Tracciato 63" fill="none" stroke-miterlimit="10">
          <path d="M228.083,199.413H198.9a43.769,43.769,0,0,0-43.768,43.768v65.053a3.27,3.27,0,0,0,5.582,2.312l23.6-23.6h43.768a43.769,43.769,0,0,0,43.769-43.768h0A43.769,43.769,0,0,0,228.083,199.413Z" stroke="none"/>
          <path d="M 198.9040069580078 204.4129943847656 C 193.6682739257812 204.4129943847656 188.5917510986328 205.4373474121094 183.8154602050781 207.4575805664062 C 179.1996154785156 209.4099426269531 175.0530700683594 212.2059936523438 171.4910125732422 215.7680053710938 C 167.9289855957031 219.330078125 165.1329345703125 223.4765930175781 163.1805725097656 228.0924682617188 C 161.1603393554688 232.8687438964844 160.135986328125 237.9452514648438 160.135986328125 243.1809997558594 L 160.135986328125 304.0570678710938 L 182.2439880371094 281.9500122070312 L 228.0829925537109 281.9500122070312 C 233.3189849853516 281.9500122070312 238.3957061767578 280.9256591796875 243.172119140625 278.9053955078125 C 247.7881164550781 276.9530639648438 251.9347534179688 274.156982421875 255.4968566894531 270.5949401855469 C 259.0589294433594 267.0328979492188 261.8550109863281 262.8863830566406 263.8074035644531 258.2705078125 C 265.82763671875 253.4942626953125 266.8519897460938 248.4177551269531 266.8519897460938 243.1809997558594 C 266.8519897460938 237.9452514648438 265.82763671875 232.8687133789062 263.8074035644531 228.0924987792969 C 261.8550109863281 223.4766235351562 259.0589294433594 219.330078125 255.4968566894531 215.7680358886719 C 251.9347534179688 212.2060241699219 247.7881164550781 209.4099731445312 243.1721496582031 207.4575805664062 C 238.3957061767578 205.4373474121094 233.3189849853516 204.4129943847656 228.0829925537109 204.4129943847656 L 198.9040069580078 204.4129943847656 M 198.9040069580078 199.4129943847656 L 228.0829925537109 199.4129943847656 C 252.2559814453125 199.4129943847656 271.8519897460938 219.0090026855469 271.8519897460938 243.1809997558594 L 271.8519897460938 243.1820068359375 C 271.8519897460938 267.35400390625 252.2559814453125 286.9500122070312 228.0829925537109 286.9500122070312 L 184.3149871826172 286.9500122070312 L 160.718017578125 310.5459899902344 C 158.6579895019531 312.6060791015625 155.135986328125 311.14697265625 155.135986328125 308.2340087890625 L 155.135986328125 243.1809997558594 C 155.135986328125 219.0090026855469 174.7319946289062 199.4129943847656 198.9040069580078 199.4129943847656 Z" stroke="none" fill="#fff"/>
        </g>
        <g id="Raggruppa_10" data-name="Raggruppa 10">
          <circle id="Ellisse_3" data-name="Ellisse 3" cx="8.063" cy="8.063" r="8.063" transform="translate(174.96 237.307)" fill="#fff"/>
          <circle id="Ellisse_4" data-name="Ellisse 4" cx="8.063" cy="8.063" r="8.063" transform="translate(203.62 237.307)" fill="#fff"/>
          <circle id="Ellisse_5" data-name="Ellisse 5" cx="8.063" cy="8.063" r="8.063" transform="translate(232.28 237.307)" fill="#fff"/>
        </g>
      </g>
      <g id="Raggruppa_13" data-name="Raggruppa 13">
        <path id="Tracciato_64" data-name="Tracciato 64" d="M286.441,233.21H315.62a43.768,43.768,0,0,1,43.768,43.768v65.053a3.27,3.27,0,0,1-5.582,2.312l-23.6-23.6H286.441a43.768,43.768,0,0,1-43.768-43.769h0A43.768,43.768,0,0,1,286.441,233.21Z" fill="#fff"/>
        <g id="Raggruppa_12" data-name="Raggruppa 12">
          <circle id="Ellisse_6" data-name="Ellisse 6" cx="8.063" cy="8.063" r="8.063" transform="translate(264.307 270.677)" fill="#21a4d2"/>
          <circle id="Ellisse_7" data-name="Ellisse 7" cx="8.063" cy="8.063" r="8.063" transform="translate(292.968 270.677)" fill="#21a4d2"/>
          <circle id="Ellisse_8" data-name="Ellisse 8" cx="8.063" cy="8.063" r="8.063" transform="translate(321.628 270.677)" fill="#21a4d2"/>
        </g>
      </g>
    </g>
  </g>
</svg>
