<svg width="123" height="38" viewBox="0 0 123 38" fill="none" xmlns="http://www.w3.org/2000/svg">
<g clip-path="url(#clip0_201_103)">
<path d="M38.3569 26.8427H41.4119V20.9827H48.6709V18.1537H41.4119V14.7537H49.5959V11.9247H38.3569V26.8427Z" fill="#39B1D9"/>
<path d="M55.6252 15.3157C54.1764 15.314 52.7441 15.6233 51.4252 16.2227L51.2082 16.3227L52.0322 18.7677L52.2912 18.6607C53.2388 18.2482 54.2579 18.0247 55.2912 18.0027C56.9162 18.0027 57.6912 18.6427 57.7222 20.0167C56.8574 19.7746 55.9632 19.6535 55.0652 19.6567C53.8682 19.593 52.6821 19.9136 51.6802 20.5717C51.2324 20.9022 50.8736 21.3387 50.6361 21.8421C50.3985 22.3454 50.2897 22.8999 50.3192 23.4557C50.3018 23.9711 50.4059 24.4834 50.623 24.9513C50.8402 25.4191 51.1643 25.8292 51.5692 26.1487C52.387 26.7756 53.3962 27.1009 54.4262 27.0697C55.6308 27.1033 56.8025 26.6738 57.7002 25.8697V26.8387H60.6522V20.1387C60.6969 19.4957 60.6094 18.8505 60.3951 18.2426C60.1808 17.6348 59.8443 17.0774 59.4062 16.6047C58.8962 16.1448 58.2981 15.7934 57.6481 15.5718C56.9981 15.3502 56.3099 15.2631 55.6252 15.3157ZM55.1322 24.7337C54.6564 24.7531 54.1868 24.6207 53.7912 24.3557C53.6254 24.2377 53.4915 24.0803 53.4018 23.8977C53.3121 23.7151 53.2692 23.513 53.2772 23.3097C53.2772 22.6457 53.5142 21.7627 55.5642 21.7627C56.3121 21.7553 57.0559 21.8743 57.7642 22.1147V22.6727C57.773 22.9592 57.7119 23.2435 57.5863 23.5012C57.4607 23.7589 57.2743 23.9821 57.0432 24.1517C56.4893 24.5548 55.8158 24.7599 55.1312 24.7337H55.1322Z" fill="#39B1D9"/>
<path d="M67.8432 19.9157L66.7632 19.5457C66.5641 19.4812 66.369 19.4047 66.1792 19.3167C65.7792 19.0937 65.5732 18.8597 65.5732 18.5807C65.5732 18.2047 65.7162 17.7737 66.8322 17.7737C67.8793 17.8365 68.8906 18.1783 69.7612 18.7637L69.9942 18.9037L71.2322 16.6847L71.0322 16.5497C69.8118 15.7223 68.3725 15.2777 66.8982 15.2727C65.8501 15.2331 64.8221 15.5677 63.9982 16.2167C63.5994 16.5354 63.2808 16.9428 63.0675 17.4066C62.8543 17.8704 62.7525 18.3776 62.7702 18.8877C62.7556 19.3574 62.8576 19.8234 63.067 20.2441C63.2763 20.6648 63.5867 21.0271 63.9702 21.2987C64.6958 21.7819 65.5027 22.1298 66.3522 22.3257C66.7882 22.4623 67.1462 22.5784 67.4262 22.6737C67.6235 22.7352 67.8152 22.8135 67.9992 22.9077C68.5992 23.2077 68.5992 23.5007 68.5992 23.6387C68.5992 23.8877 68.5992 24.5487 67.1762 24.5487C65.9348 24.4929 64.7437 24.0424 63.7762 23.2627L63.5532 23.0997L62.1592 25.2187L62.3482 25.3677C63.6966 26.4609 65.3813 27.0547 67.1172 27.0487C68.1966 27.0961 69.2607 26.7792 70.1382 26.1487C70.5589 25.8141 70.8937 25.384 71.1149 24.8941C71.3361 24.4041 71.4374 23.8685 71.4102 23.3317C71.3932 21.7977 70.1962 20.6457 67.8432 19.9157Z" fill="#39B1D9"/>
<path d="M76.7392 12.4777H73.7252V15.4597H72.3481V18.1237H73.7252V23.5777C73.7252 25.8347 74.8972 27.0277 77.1142 27.0277C77.9419 27.0403 78.7587 26.8374 79.4842 26.4387L79.6182 26.3637V23.7487L79.2382 23.9397C78.7965 24.1638 78.3084 24.281 77.8131 24.2817C77.0711 24.2817 76.7392 23.9447 76.7392 23.1877V18.1247H79.6591V15.4607H76.7392V12.4777Z" fill="#39B1D9"/>
<path d="M89.3869 23.1277C89.0589 23.5069 88.656 23.8143 88.2036 24.0306C87.7513 24.2469 87.2591 24.3674 86.7579 24.3847C86.3548 24.3975 85.9537 24.322 85.5828 24.1635C85.2119 24.0049 84.8802 23.7671 84.6109 23.4667C84.0427 22.8244 83.7421 21.9888 83.7709 21.1317C83.7523 20.2946 84.0526 19.4817 84.6109 18.8577C84.8605 18.5609 85.1738 18.3242 85.5275 18.1652C85.8813 18.0063 86.2663 17.9292 86.6539 17.9397C87.1532 17.9598 87.6429 18.0836 88.0917 18.3033C88.5406 18.523 88.9387 18.8337 89.2609 19.2157L89.4529 19.4157L91.3739 17.3687L91.2079 17.1897C90.6373 16.5573 89.9371 16.0552 89.1551 15.7175C88.3731 15.3798 87.5276 15.2144 86.6759 15.2327C85.8856 15.2153 85.1004 15.3632 84.3706 15.667C83.6408 15.9708 82.9825 16.4237 82.4379 16.9967C81.36 18.1229 80.7583 19.6217 80.7583 21.1807C80.7583 22.7397 81.36 24.2385 82.4379 25.3647C82.9806 25.927 83.6341 26.3705 84.3571 26.6673C85.08 26.964 85.8567 27.1075 86.6379 27.0887C87.5197 27.0976 88.3925 26.9119 89.1942 26.5447C89.9958 26.1776 90.7067 25.6381 91.2759 24.9647L91.4419 24.7787L89.5739 22.9357L89.3869 23.1277Z" fill="#39B1D9"/>
<path d="M100.232 21.8717C100.275 22.5244 100.06 23.1679 99.632 23.6627C99.427 23.871 99.1804 24.0337 98.9084 24.1404C98.6363 24.247 98.3448 24.2952 98.0529 24.2817C96.6469 24.2817 95.992 23.5287 95.992 21.9127V15.4807H92.978V22.6557C92.9196 23.8229 93.3034 24.9691 94.0529 25.8657C94.4474 26.2702 94.9233 26.5864 95.4491 26.7933C95.9749 27.0001 96.5386 27.093 97.103 27.0657C97.6951 27.0739 98.2819 26.9529 98.8225 26.7111C99.363 26.4693 99.8443 26.1126 100.233 25.6657V26.8557H103.247V15.4807H100.233L100.232 21.8717Z" fill="#39B1D9"/>
<path d="M108.86 17.0927V15.4607H105.846V26.8437H108.86V22.4437C108.791 21.3435 109.132 20.2567 109.818 19.3937C110.136 19.0598 110.522 18.7988 110.951 18.6288C111.379 18.4587 111.839 18.3836 112.299 18.4087H112.705V15.2627L112.455 15.2507C111.744 15.1903 111.029 15.3309 110.394 15.6566C109.758 15.9822 109.227 16.4799 108.86 17.0927Z" fill="#39B1D9"/>
<path d="M122.193 16.6087C121.682 16.1472 121.083 15.7946 120.432 15.5723C119.781 15.35 119.091 15.2627 118.405 15.3157C116.956 15.314 115.524 15.6233 114.205 16.2227L113.988 16.3227L114.812 18.7677L115.071 18.6607C116.02 18.2476 117.041 18.0241 118.076 18.0027C119.7 18.0027 120.476 18.6427 120.507 20.0167C119.642 19.7747 118.748 19.6535 117.85 19.6567C116.653 19.5931 115.467 19.9137 114.465 20.5717C114.017 20.9023 113.658 21.3388 113.421 21.8422C113.183 22.3455 113.074 22.8999 113.104 23.4557C113.086 23.9712 113.191 24.4835 113.408 24.9513C113.625 25.4191 113.949 25.8293 114.354 26.1487C115.172 26.7757 116.181 27.101 117.211 27.0697C118.416 27.1036 119.588 26.6741 120.486 25.8697V26.8387H123.438V20.1387C123.482 19.4965 123.395 18.852 123.181 18.2449C122.966 17.6378 122.63 17.081 122.193 16.6087ZM117.912 24.7337C117.436 24.7531 116.966 24.6208 116.571 24.3557C116.405 24.2378 116.271 24.0804 116.181 23.8978C116.092 23.7152 116.049 23.5131 116.057 23.3097C116.057 22.6457 116.294 21.7627 118.344 21.7627C119.092 21.7553 119.836 21.8743 120.544 22.1147V22.6727C120.553 22.9592 120.492 23.2435 120.366 23.5011C120.241 23.7588 120.055 23.9821 119.824 24.1517C119.27 24.5549 118.596 24.7599 117.912 24.7337Z" fill="#39B1D9"/>
<path d="M9.77307 17.1317C9.79507 16.8491 9.8284 16.5694 9.87307 16.2927H4.57307H2.60107V18.7237H4.48207V18.7127H9.75208C9.72324 18.1859 9.73025 17.6576 9.77307 17.1317Z" fill="#39B1D9"/>
<path d="M35.2772 28.3077L30.6932 24.5227C30.1531 25.3199 29.5106 26.0428 28.7822 26.6727L33.4112 30.5407C33.6503 30.7405 33.959 30.8372 34.2694 30.8094C34.5797 30.7817 34.8664 30.6318 35.0662 30.3927L35.4252 29.9627C35.625 29.7236 35.7217 29.4149 35.694 29.1046C35.6662 28.7942 35.5163 28.5076 35.2772 28.3077Z" fill="#39B1D9"/>
<path d="M22.0203 28.0267C19.9735 28.1939 17.9248 27.7288 16.1509 26.6942C14.377 25.6597 12.9634 24.1056 12.101 22.2419C11.2387 20.3781 10.9692 18.2946 11.329 16.2728C11.6887 14.251 12.6604 12.3884 14.1127 10.9366C15.565 9.48472 17.428 8.51365 19.4499 8.15455C21.4718 7.79545 23.5552 8.06562 25.4187 8.92857C27.2821 9.79152 28.8357 11.2056 29.8697 12.9799C30.9037 14.7542 31.3681 16.803 31.2003 18.8497C31.004 21.2185 29.9737 23.4408 28.2927 25.1212C26.6118 26.8017 24.3891 27.8312 22.0203 28.0267ZM21.9993 10.3097C20.4048 10.1455 18.7986 10.479 17.4014 11.2644C16.0041 12.0498 14.8842 13.2485 14.1957 14.696C13.5071 16.1434 13.2836 17.7686 13.5559 19.3482C13.8282 20.9278 14.5829 22.3843 15.7163 23.5177C16.8497 24.6511 18.3062 25.4058 19.8858 25.6781C21.4654 25.9504 23.0906 25.7269 24.538 25.0383C25.9855 24.3498 27.1842 23.2299 27.9696 21.8326C28.755 20.4354 29.0885 18.8292 28.9243 17.2347C28.7401 15.461 27.9513 13.8046 26.6903 12.5437C25.4294 11.2827 23.773 10.4939 21.9993 10.3097Z" fill="#39B1D9"/>
<path d="M26.7968 16.2918H22.9418V12.4368H19.4668V16.2918H15.6118V19.7668H19.4668V23.6218H22.9418V19.7668H26.7968V16.2918Z" fill="#39B1D9"/>
<path d="M10.1662 21.2548H5.2002V23.5988H11.1432C10.7369 22.8535 10.4094 22.068 10.1662 21.2548Z" fill="#39B1D9"/>
<path d="M11.946 11.3097H0V13.7327H10.581C10.9356 12.8724 11.394 12.0587 11.946 11.3097Z" fill="#39B1D9"/>
</g>
<defs>
<clipPath id="clip0_201_103">
<rect width="123" height="38" fill="white"/>
</clipPath>
</defs>
</svg>
