<svg width="24" height="24" viewBox="0 0 24 24" fill="none" xmlns="http://www.w3.org/2000/svg">
<path d="M12 12C13.1209 12.0002 14.2167 11.668 15.1488 11.0454C16.0809 10.4228 16.8074 9.5377 17.2364 8.50215C17.6655 7.4666 17.7778 6.32707 17.5592 5.22769C17.3405 4.1283 16.8008 3.11845 16.0082 2.32584C15.2156 1.53324 14.2057 0.99349 13.1063 0.774859C12.0069 0.556229 10.8674 0.668539 9.83186 1.09758C8.79631 1.52663 7.91126 2.25314 7.28864 3.18523C6.66602 4.11731 6.33379 5.21311 6.33399 6.33402C6.33386 7.07812 6.48033 7.81497 6.76502 8.50246C7.04972 9.18995 7.46707 9.81462 7.99323 10.3408C8.51939 10.8669 9.14406 11.2843 9.83155 11.569C10.519 11.8537 11.2559 12.0001 12 12ZM12 14.833C8.21799 14.834 0.666992 16.732 0.666992 20.5V23.333H23.334V20.5C23.334 16.732 15.783 14.834 12 14.834V14.833Z" fill="#39B1D9"/>
</svg>
