<svg xmlns="http://www.w3.org/2000/svg" width="116.006" height="87.064" viewBox="0 0 116.006 87.064">
  <g id="Raggruppa_18" data-name="Raggruppa 18" transform="translate(-526.282 -151.839)">
    <g id="Raggruppa_8" data-name="Raggruppa 8">
      <path id="Tracciato_60" data-name="Tracciato 60" d="M599.286,202.4a36.5,36.5,0,1,1-17.534-31.189,16.716,16.716,0,0,0-.311,3.082,18.166,18.166,0,0,0,.3,3.313,1.42,1.42,0,0,1,.081.419c.068.27.149.554.217.824a16.948,16.948,0,0,0,6.705,9.559q4.927,3.507,9.869,7A36.056,36.056,0,0,1,599.286,202.4Z" fill="#fff"/>
      <g id="Raggruppa_6" data-name="Raggruppa 6">
        <circle id="Ellisse_1" data-name="Ellisse 1" cx="4.719" cy="4.719" r="4.719" transform="translate(572.008 186.189)" fill="#21a4d2"/>
        <circle id="Ellisse_2" data-name="Ellisse 2" cx="4.719" cy="4.719" r="4.719" transform="translate(544.128 186.189)" fill="#21a4d2"/>
      </g>
      <path id="Tracciato_61" data-name="Tracciato 61" d="M581.445,208.307a18.659,18.659,0,0,1-37.317.1Z" fill="#21a4d2"/>
      <g id="PLgird.tif">
        <g id="Raggruppa_7" data-name="Raggruppa 7">
          <path id="Tracciato_62" data-name="Tracciato 62" d="M642.284,169.313a16.835,16.835,0,0,1-3.137,9.464Q630.1,191.593,621.018,204.4c-.6.838-1.19,1.69-1.785,2.528-.013,0-.026.013-.054.013-.027-.081-.108-.108-.162-.148q-8.984-6.367-17.953-12.749-4.929-3.508-9.869-7a16.941,16.941,0,0,1-6.706-9.558c-.068-.27-.149-.554-.216-.825a1.463,1.463,0,0,0-.081-.419,18.165,18.165,0,0,1-.3-3.312,16.806,16.806,0,0,1,.311-3.082,16.565,16.565,0,0,1,1.014-3.367,17.028,17.028,0,0,1,15.926-10.491,16.8,16.8,0,0,1,9.761,3.2c.216.149.175.163.351-.067a16.892,16.892,0,0,1,10.045-6.814,16.15,16.15,0,0,1,5.583-.378,16.991,16.991,0,0,1,13.02,8.287,15.448,15.448,0,0,1,1.892,4.759c.014.054.014.121.081.148.1.622.2,1.244.311,1.852-.054.068-.027.136-.013.2A12.575,12.575,0,0,1,642.284,169.313Z" fill="#fff"/>
        </g>
      </g>
    </g>
  </g>
</svg>
